# xmcd CD database file
# 
# Track frame offsets:
# 200
# 17562
# 31800
# 49645
# 63032
# 76842
# 
# Disc length: 1211 seconds
#
# 
# Revision: 0
# Processed by: cddbd v1.4b41PL1 Copyright (c) Steve Scherf et al.
# Submitted via: SuperSonic v3.0
# 
DISCID=3504b906
DTITLE=Various, Country - CURB COUNTRY 91
DYEAR=1900
DGENRE=
TTITLE0=DADDY ON THE RADIO
TTITLE1=MAMMA'S LITTLE BABY LOVES ME
TTITLE2=ONE HUNDRED AND TWO
TTITLE3=SMALL TOWN SATURDAY NIGHT
TTITLE4=PRETENDING TO CRY
TTITLE5=HOLIDAY INN
EXTD=
EXTT0=
EXTT1=
EXTT2=
EXTT3=
EXTT4=
EXTT5=
PLAYORDER=
